<?xml version="1.0" encoding="UTF-8"?>
<svg id="Layer_2" xmlns="http://www.w3.org/2000/svg" viewBox="0 0 102.86 137.14">
  <g id="Layer_1-2" data-name="Layer_1">
    <g id="Calculator">
      <path d="M21.43,0C9.64,0,0,9.64,0,21.43v94.29c0,11.78,9.64,21.43,21.43,21.43h60c11.78,0,21.43-9.64,21.43-21.43V21.43c0-11.78-9.64-21.43-21.43-21.43H21.43ZM21.43,8.57h60c7.15,0,12.86,5.71,12.86,12.86v94.29c0,7.15-5.71,12.86-12.86,12.86H21.43c-7.15,0-12.86-5.71-12.86-12.86V21.43c0-7.15,5.71-12.86,12.86-12.86Z"/>
      <rect x="17.14" y="17.14" width="68.57" height="25.71" rx="4.29" ry="4.29"/>
      <circle cx="25.71" cy="60" r="8.57"/>
      <circle cx="51.43" cy="60" r="8.57"/>
      <circle cx="77.14" cy="60" r="8.57"/>
      <circle cx="25.71" cy="85.71" r="8.57"/>
      <circle cx="51.43" cy="85.71" r="8.57"/>
      <circle cx="77.14" cy="85.71" r="8.57"/>
      <path d="M25.71,102.86c-4.74,0-8.57,3.84-8.57,8.57s3.84,8.57,8.57,8.57h25.71c4.74,0,8.57-3.84,8.57-8.57s-3.84-8.57-8.57-8.57h-25.71Z"/>
      <circle cx="77.14" cy="111.43" r="8.57"/>
    </g>
  </g>
</svg>