<?xml version="1.0" encoding="UTF-8"?>
<svg id="Layer_2" xmlns="http://www.w3.org/2000/svg" viewBox="0 0 146 79.2">
  <defs>
    <style>
      .cls-1 {
        stroke: #000;
        stroke-miterlimit: 10;
        stroke-width: 8px;
      }
    </style>
  </defs>
  <g id="Layer_1-2" data-name="Layer_1">
    <g id="Capital_One">
      <path class="cls-1" d="M85.08,55.49s-.02.01-.02.02c-8.45,5.98-18.45,12.26-29.22,18.86l-.42.25c-.15.1-.18.3-.08.45.1.15.3.18.45.08l.36-.19c9.13-4.76,19.62-10.42,30.17-16.22.06-.03.11-.07.17-.09-.58-.96-1.06-2.01-1.4-3.15h0ZM140.52,10.62c-13.31-14.69-98.98-1.48-135.41,6.48l-.85.18c-.18.03-.29.2-.26.37.03.18.2.29.37.26l.84-.17c30.18-5.38,92.95-12.82,106.45.57,4.12,4.09,3.14,9.34-1.64,15.56,2.57,1.65,4.4,4.26,5.23,7.51,18.67-12.38,31.19-24.22,25.27-30.76Z"/>
    </g>
  </g>
</svg>