<?xml version="1.0" encoding="UTF-8"?>
<svg id="Layer_2" xmlns="http://www.w3.org/2000/svg" viewBox="0 0 138 86.74">
  <defs>
    <style>
      .cls-1 {
        fill: none;
        stroke: #000;
        stroke-linejoin: round;
        stroke-width: 9px;
      }
    </style>
  </defs>
  <g id="Layer_1-2" data-name="Layer_1">
    <g id="Discord">
      <path class="cls-1" d="M113.86,11.03c-8.41-3.06-17.34-5.29-26.66-6.53-1.17,1.61-2.48,3.78-3.39,5.49-9.92-1.14-19.76-1.14-29.54,0-.91-1.71-2.28-3.89-3.39-5.49-9.39,1.24-18.32,3.47-26.67,6.53C7.33,30.83,2.77,50.16,5.05,69.23c11.21,6.48,22.03,10.42,32.67,13.01,2.61-2.8,4.95-5.8,6.98-8.97-3.85-1.14-7.5-2.54-11.02-4.2.91-.52,1.83-1.09,2.67-1.66,21.25,7.72,44.27,7.72,65.26,0,.91.57,1.76,1.14,2.67,1.66-3.52,1.66-7.17,3.06-11.02,4.2,2.02,3.16,4.37,6.17,6.98,8.97,10.63-2.59,21.51-6.53,32.67-13.01,2.8-22.08-4.44-41.25-19.04-58.2Z"/>
      <path d="M47.62,57.47c-6.39,0-11.6-4.61-11.6-10.26s5.08-10.26,11.6-10.26,11.73,4.61,11.6,10.26c0,5.65-5.15,10.26-11.6,10.26Z"/>
      <path d="M90.46,57.47c-6.39,0-11.61-4.61-11.61-10.26s5.09-10.26,11.61-10.26,11.73,4.61,11.6,10.26c0,5.65-5.08,10.26-11.6,10.26Z"/>
    </g>
  </g>
</svg>