<?xml version="1.0" encoding="UTF-8"?>
<svg id="Layer_2" xmlns="http://www.w3.org/2000/svg" viewBox="0 0 137 137">
  <defs>
    <style>
      .cls-1, .cls-2 {
        fill: none;
      }

      .cls-2 {
        stroke: #000;
        stroke-miterlimit: 10;
        stroke-width: 9px;
      }

      .cls-3 {
        fill: #0a0a08;
      }
    </style>
  </defs>
  <g id="Layer_1-2" data-name="Layer_1">
    <g id="Instagram">
      <path class="cls-2" d="M68.5,12.34c18.29,0,20.46.07,27.68.4,6.68.3,10.31,1.42,12.72,2.36,3.2,1.24,5.48,2.73,7.88,5.12s3.88,4.68,5.12,7.88c.94,2.41,2.05,6.04,2.36,12.72.33,7.22.4,9.39.4,27.68s-.07,20.46-.4,27.68c-.3,6.68-1.42,10.31-2.36,12.72-1.24,3.2-2.73,5.48-5.12,7.88-2.4,2.4-4.68,3.88-7.88,5.12-2.41.94-6.04,2.05-12.72,2.36-7.22.33-9.39.4-27.68.4s-20.46-.07-27.68-.4c-6.68-.3-10.31-1.42-12.72-2.36-3.2-1.24-5.48-2.73-7.88-5.12-2.4-2.4-3.88-4.68-5.12-7.88-.94-2.41-2.05-6.04-2.36-12.72-.33-7.22-.4-9.39-.4-27.68s.07-20.46.4-27.68c.3-6.68,1.42-10.31,2.36-12.72,1.24-3.2,2.73-5.48,5.12-7.88,2.4-2.4,4.68-3.88,7.88-5.12,2.41-.94,6.04-2.05,12.72-2.36,7.22-.33,9.39-.4,27.68-.4"/>
      <path class="cls-1" d="M68.5,0c-18.6,0-20.94.08-28.24.41-7.29.33-12.27,1.49-16.63,3.18-4.5,1.75-8.32,4.09-12.13,7.9-3.81,3.81-6.15,7.63-7.9,12.13-1.69,4.36-2.85,9.34-3.18,16.63-.33,7.31-.41,9.64-.41,28.24s.08,20.94.41,28.24c.33,7.29,1.49,12.27,3.18,16.63,1.75,4.5,4.09,8.32,7.9,12.13,3.81,3.81,7.63,6.15,12.13,7.9,4.36,1.69,9.34,2.85,16.63,3.18,7.31.33,9.64.41,28.24.41s20.94-.08,28.24-.41c7.29-.33,12.27-1.49,16.63-3.18,4.5-1.75,8.32-4.09,12.13-7.9,3.81-3.81,6.15-7.63,7.9-12.13,1.69-4.36,2.85-9.34,3.18-16.63.33-7.31.41-9.64.41-28.24s-.08-20.94-.41-28.24c-.33-7.29-1.49-12.27-3.18-16.63-1.75-4.5-4.09-8.32-7.9-12.13-3.81-3.81-7.63-6.15-12.13-7.9-4.36-1.69-9.34-2.85-16.63-3.18-7.31-.33-9.64-.41-28.24-.41Z"/>
      <path class="cls-3" d="M68.5,33.32c-19.43,0-35.18,15.75-35.18,35.18s15.75,35.18,35.18,35.18,35.18-15.75,35.18-35.18-15.75-35.18-35.18-35.18ZM68.5,95.5c-14.91,0-27-12.09-27-27s12.09-27,27-27,27,12.09,27,27-12.09,27-27,27Z"/>
      <path class="cls-3" d="M113.29,31.93c0,4.54-3.68,8.22-8.22,8.22s-8.22-3.68-8.22-8.22,3.68-8.22,8.22-8.22,8.22,3.68,8.22,8.22Z"/>
    </g>
  </g>
</svg>