<?xml version="1.0" encoding="UTF-8"?>
<svg id="Layer_2" xmlns="http://www.w3.org/2000/svg" viewBox="0 0 137 96.46">
  <g id="Layer_1-2" data-name="Layer_1">
    <g id="Mail">
      <rect width="137" height="96.46"/>
      <path d="M17.56,96.46h101.49c10.01,0,15.88-5.82,15.88-17.33V17.39C134.93,5.87,129,.06,117.37.06H15.88C5.87.06,0,5.87,0,17.39v61.73c0,11.52,5.93,17.33,17.56,17.33ZM17.22,87.9c-5.54,0-8.67-3.08-8.67-8.84V17.33c0-5.7,3.13-8.72,8.67-8.72h100.43c5.54,0,8.72,3.02,8.72,8.78v61.73c0,5.7-3.19,8.78-8.72,8.78H17.22ZM67.44,62.96c3.58,0,7.05-1.34,10.23-4.25l52.62-47.36-5.82-5.87-51.67,46.58c-1.73,1.57-3.52,2.29-5.37,2.29s-3.63-.73-5.37-2.29L10.4,5.48l-5.82,5.87,52.62,47.36c3.19,2.91,6.65,4.25,10.23,4.25ZM11.24,89.3l39.7-39.76-5.82-5.82L5.42,83.43l5.82,5.87ZM123.75,89.36l5.82-5.87-39.76-39.76-5.87,5.82,39.81,39.81Z"/>
    </g>
  </g>
</svg>