<?xml version="1.0" encoding="UTF-8"?>
<svg id="Layer_2" xmlns="http://www.w3.org/2000/svg" viewBox="0 0 114.83 138">
  <defs>
    <style>
      .cls-1 {
        fill: none;
        stroke: #000;
        stroke-linecap: round;
        stroke-linejoin: round;
        stroke-width: 7px;
      }
    </style>
  </defs>
  <g id="Layer_1-2" data-name="Layer_1">
    <g id="Mastodon">
      <g>
        <path class="cls-1" d="M111.33,46.51c0-28.42-16.44-36.75-16.44-36.75C78.76,1.37,35.93,1.46,19.96,9.76c0,0-16.44,8.33-16.44,36.75,0,33.83-1.7,75.84,27.25,84.52,10.45,3.13,19.43,3.8,26.65,3.33,13.11-.82,20.46-5.29,20.46-5.29l-.44-10.79s-9.37,3.33-19.89,2.95c-10.43-.41-21.42-1.29-23.12-15.79-.15-1.29-.23-2.63-.23-4.06,22.09,6.11,40.92,2.66,46.11,1.96,14.48-1.96,27.09-12.07,28.69-21.31,2.53-14.56,2.32-35.52,2.32-35.52h0Z"/>
        <path d="M91.95,82.72h-12.02v-33c0-14.53-16.51-15.09-16.51,2.02v18.27h-11.95v-18.27c0-17.1-16.51-16.55-16.51-2.02v33h-12.05c0-35.7-1.34-42.85,4.75-50.77,6.68-8.45,20.59-9,26.78,1.78l2.99,5.7,2.99-5.7c6.22-10.85,20.15-10.17,26.78-1.78,6.12,7.98,4.75,15.1,4.75,50.77h0Z"/>
      </g>
    </g>
  </g>
</svg>