<?xml version="1.0" encoding="UTF-8"?>
<svg id="Layer_2" xmlns="http://www.w3.org/2000/svg" viewBox="0 0 137 137">
  <defs>
    <style>
      .cls-1 {
        fill: rgba(242, 242, 242, .85);
      }

      .cls-2 {
        fill: rgba(242, 242, 242, 0);
      }
    </style>
  </defs>
  <g id="Layer_1-2" data-name="Layer_1">
    <g id="Messages">
      <rect class="cls-2" width="137" height="137"/>
      <path class="cls-1" d="M67.28,136.93c36.81,0,67.28-31.08,67.28-68.47S104.02,0,67.21,0,0,31.01,0,68.47s30.54,68.47,67.28,68.47ZM67.28,125.52c-31.13,0-56-25.37-56-57.06S36.08,11.41,67.21,11.41s56.13,25.37,56.13,57.06-24.93,57.06-56.07,57.06Z"/>
      <path class="cls-1" d="M67.21,96.79c20.45,0,36.48-13.63,36.48-30.34s-16.03-30.34-36.48-30.34-36.48,13.63-36.48,30.34c0,10.54,6.53,19.6,16.23,25.31.79.47.79,1.21.4,1.95-1.06,2.22-2.97,4.3-4.35,5.84-1.85,2.15-1.32,4.5,1.58,4.5,3.63,0,10.22-2.75,16.75-6.85.66-.4,1.06-.6,1.78-.54,1.25.07,2.64.13,4.09.13Z"/>
    </g>
  </g>
</svg>