<?xml version="1.0" encoding="UTF-8"?>
<svg id="Layer_2" xmlns="http://www.w3.org/2000/svg" viewBox="0 0 107.12 137">
  <g id="Layer_1-2" data-name="Layer_1">
    <path id="Music" d="M38.67,109.07v-60.85c0-2.28,1.27-3.68,3.8-4.18l52.48-10.65c2.79-.51,4.31.76,4.56,3.8v46.4c0,3.8-5.7,6.34-17.11,7.61-21.68,3.42-18.25,39.93,11.41,30.04,11.41-4.18,13.31-15.21,13.31-26.24V6.01s0-7.61-6.46-5.7L36.01,13.62s-4.94.76-4.94,6.85v77.2c0,3.8-5.7,6.34-17.11,7.61-21.68,3.42-18.25,39.93,11.41,30.04,11.41-4.18,13.31-15.21,13.31-26.24"/>
  </g>
</svg>