<?xml version="1.0" encoding="UTF-8"?>
<svg id="Layer_2" xmlns="http://www.w3.org/2000/svg" viewBox="0 0 137 137">
  <g id="Layer_1-2" data-name="Layer_1">
    <g id="Notes">
      <rect width="137" height="137"/>
      <path d="M21.19,137h92.19c14.11,0,21.12-7.73,21.12-23.04V23.19C134.5,7.88,127.48.15,113.38.15H21.19C7.09.15,0,7.81,0,23.19v90.76c0,15.39,7.09,23.04,21.19,23.04ZM17.89,125.35c-6.3,0-9.77-3.52-9.77-10.48V44.28c0-6.89,3.47-10.48,9.77-10.48h98.65c6.3,0,9.84,3.59,9.84,10.48v70.59c0,6.96-3.54,10.48-9.84,10.48H17.89Z"/>
      <path d="M31.92,61.77h70.86c2.36,0,4.18-2.08,4.18-4.68s-1.82-4.46-4.18-4.46H31.92c-2.5,0-4.25,1.93-4.25,4.46s1.75,4.68,4.25,4.68ZM31.92,84.15h70.86c2.36,0,4.18-1.93,4.18-4.46,0-2.68-1.82-4.68-4.18-4.68H31.92c-2.5,0-4.25,2.01-4.25,4.68,0,2.53,1.75,4.46,4.25,4.46ZM31.92,106.52h45.01c2.36,0,4.18-1.93,4.18-4.46s-1.82-4.68-4.18-4.68H31.92c-2.5,0-4.25,2.08-4.25,4.68s1.75,4.46,4.25,4.46Z"/>
    </g>
  </g>
</svg>