<?xml version="1.0" encoding="UTF-8"?>
<svg id="Layer_2" xmlns="http://www.w3.org/2000/svg" viewBox="0 0 137 137">
  <defs>
    <style>
      .cls-1 {
        fill: rgba(242, 242, 242, .85);
      }

      .cls-2 {
        fill: rgba(242, 242, 242, 0);
      }
    </style>
  </defs>
  <g id="Layer_1-2" data-name="Layer_1">
    <g id="Phone">
      <rect class="cls-2" width="137" height="137"/>
      <path class="cls-1" d="M67.28,136.93c36.81,0,67.28-31.08,67.28-68.47S104.02,0,67.21,0,0,31.01,0,68.47s30.54,68.47,67.28,68.47ZM67.28,125.52c-31.13,0-56-25.37-56-57.06S36.08,11.41,67.21,11.41s56.13,25.37,56.13,57.06-24.93,57.06-56.07,57.06Z"/>
      <path class="cls-1" d="M51.19,84.17c15.37,15.71,34.96,25.64,46.57,13.89.46-.47.79-.87,1.12-1.34,3.03-3.42,3.83-7.92,0-10.94-3.03-2.22-6.27-4.56-11.74-8.39-3.83-2.75-6.33-2.08-9.3.94l-2.64,2.62c-.73.74-2.04.67-2.9.13-2.37-1.41-6.2-4.56-9.89-8.32-3.63-3.69-6.86-7.85-8.18-10.07-.46-.74-.73-1.95.13-2.82l2.57-2.82c2.97-3.15,3.63-5.57.86-9.53l-8.11-11.68c-2.77-3.96-6.79-3.15-11.21.13-.33.27-.59.54-.86.81-11.68,11.81-1.78,31.75,13.59,47.39Z"/>
    </g>
  </g>
</svg>