<?xml version="1.0" encoding="UTF-8"?>
<svg id="Layer_2" xmlns="http://www.w3.org/2000/svg" viewBox="0 0 143.88 114.31">
  <defs>
    <style>
      .cls-1, .cls-2, .cls-3 {
        fill: none;
      }

      .cls-2 {
        stroke-width: 9px;
      }

      .cls-2, .cls-3 {
        stroke: #000;
        stroke-miterlimit: 10;
      }

      .cls-3 {
        stroke-width: 6px;
      }
    </style>
  </defs>
  <g id="Layer_1-2" data-name="Layer_1">
    <g id="Photos">
      <rect x="4.5" y="4.5" width="137" height="105.31"/>
      <path class="cls-3" d="M139.74,92.41l-37.17-34.71c-2.75-2.55-6.07-3.86-9.45-3.86s-6.51,1.18-9.39,3.73l-28.28,25.13-11.58-10.39c-2.63-2.36-5.51-3.55-8.45-3.55s-5.51,1.12-8.07,3.48L3.51,93.65c.38,11.26,5.01,16.98,14.33,16.98h104.88c11.33,0,17.02-6.28,17.02-18.23Z"/>
      <path class="cls-2" d="M22.46,109.81h98.96c12.01,0,17.96-5.89,17.96-17.68V22.23c0-11.78-5.95-17.73-17.96-17.73H22.46c-11.96,0-17.96,5.95-17.96,17.73v69.9c0,11.78,6.01,17.68,17.96,17.68Z"/>
      <path class="cls-1" d="M22.58,100.6c-5.72,0-8.87-3.03-8.87-8.98V22.75c0-5.95,3.15-9.04,8.87-9.04h98.73c5.66,0,8.87,3.09,8.87,9.04v68.87c0,5.95-3.2,8.98-8.87,8.98H22.58Z"/>
      <path d="M47.12,57.7c7.38,0,13.44-6.06,13.44-13.5s-6.06-13.5-13.44-13.5-13.5,6.12-13.5,13.5,6.06,13.5,13.5,13.5Z"/>
    </g>
  </g>
</svg>