<?xml version="1.0" encoding="UTF-8"?>
<svg id="Layer_2" xmlns="http://www.w3.org/2000/svg" viewBox="0 0 137 124.44">
  <g id="Layer_1-2" data-name="Layer_1">
    <g id="Reddit">
      <path d="M117.74,45.82c-3.31.12-6.52,1.12-9.3,2.89-10.54-6.15-25.38-9.95-37.26-11.06l5.66-26.61,21.13,4.22c1.21,5.72,6.28,10.02,12.36,10.02,6.98,0,12.64-5.66,12.64-12.64S117.32,0,110.34,0c-4.64,0-8.69,2.51-10.89,6.24l-22.19-4.44c-1.97-.44-3.99-.09-5.7,1-1.7,1.08-2.88,2.77-3.32,4.74-.02.1-.04.2-.05.3l-6.3,29.62c-11.88.78-23.34,4.43-33.49,10.66-3.09-1.93-6.68-2.92-10.4-2.79-4.96.16-9.56,2.24-12.95,5.85C1.64,54.81-.15,59.54,0,64.51c.16,4.96,2.24,9.56,5.87,12.96.72.67,1.47,1.28,2.25,1.81,0,.59.03,1.18.07,1.76.12,23.95,27.22,43.4,60.52,43.4s60.41-19.45,60.52-43.4c.04-.62.06-1.25.07-1.87,4.85-3.53,7.79-9.29,7.69-15.45-.38-10.22-9.03-18.28-19.25-17.9ZM122.63,72.57c-1.65.82-2.64,2.56-2.51,4.39.08,1.2.08,2.41,0,3.61,0,.1-.01.21-.01.31,0,18.98-23.05,34.43-51.39,34.43s-51.39-15.44-51.39-34.43c0-.1,0-.21-.01-.31-.08-1.19-.08-2.41,0-3.6.13-1.92-.95-3.71-2.71-4.49-.86-.38-1.7-.95-2.49-1.69-1.84-1.72-2.9-4.06-2.97-6.58-.08-2.53.83-4.93,2.56-6.78,1.72-1.84,4.06-2.89,6.58-2.97.1,0,.2,0,.31,0,2.41,0,4.7.9,6.46,2.56,1.55,1.46,3.92,1.65,5.69.46,10.34-7,22.39-10.81,34.87-11.03,11.82.28,30.02,4.42,40.54,11.59,1.78,1.21,4.16,1.02,5.72-.47,1.7-1.62,3.9-2.55,6.19-2.63,5.18-.15,9.62,3.91,9.81,9.02.06,3.61-1.99,6.98-5.23,8.61Z"/>
      <g>
        <path d="M94.26,92.84c-1.55-.77-3.4-.6-4.78.44-5.97,4.49-13.36,6.79-20.79,6.49-.13,0-.25,0-.38,0-7.43.29-14.81-1.99-20.79-6.49-2.02-1.52-4.88-1.11-6.39.91-1.51,2.02-1.11,4.88.91,6.39,7.2,5.41,16,8.34,24.94,8.34.51,0,1.01,0,1.52-.03,8.82.33,17.55-2.2,24.84-7.16,1.98-.5,3.44-2.29,3.44-4.43v-.38c0-1.73-.98-3.31-2.53-4.08Z"/>
        <g>
          <path d="M56.65,73.79c0-5.42-4.42-9.84-9.84-9.84s-9.84,4.42-9.84,9.84,4.4,9.79,9.84,9.84c5.42,0,9.84-4.42,9.84-9.84Z"/>
          <path d="M100.03,74.32c0-5.42-4.42-9.84-9.84-9.84s-9.84,4.42-9.84,9.84,4.4,9.79,9.84,9.84c5.42,0,9.84-4.42,9.84-9.84Z"/>
        </g>
      </g>
    </g>
  </g>
</svg>