<?xml version="1.0" encoding="UTF-8"?>
<svg id="Layer_2" xmlns="http://www.w3.org/2000/svg" viewBox="0 0 138 75.53">
  <defs>
    <style>
      .cls-1 {
        fill: none;
        stroke: #000;
        stroke-linecap: round;
        stroke-linejoin: round;
        stroke-width: 6px;
      }
    </style>
  </defs>
  <g id="Layer_1-2" data-name="Layer_1">
    <g id="RetroArch">
      <polygon class="cls-1" points="41.04 3 51.6 3 60.17 15.28 77.83 15.28 86.4 3 96.96 3 88.39 15.28 101.73 15.28 107.58 33.45 121.5 33.45 116.05 16.62 126.74 16.62 132.22 33.45 135 42.11 110.36 42.11 114.83 55.84 97.9 55.84 109.51 72.53 94.08 72.53 82.54 55.76 55.46 55.76 43.85 72.44 28.62 72.44 40.23 55.76 23.31 55.76 27.64 42.11 3 42.11 5.78 33.53 11.26 16.71 21.95 16.71 16.5 33.53 30.42 33.53 36.27 15.36 49.61 15.36 41.04 3.08 41.04 3"/>
      <rect x="44.06" y="21.67" width="14.79" height="12.36"/>
      <rect x="79.05" y="21.67" width="14.89" height="12.36"/>
    </g>
  </g>
</svg>