<?xml version="1.0" encoding="UTF-8"?>
<svg id="Layer_2" xmlns="http://www.w3.org/2000/svg" viewBox="0 0 137 137">
  <defs>
    <style>
      .cls-1 {
        fill: rgba(242, 242, 242, .85);
      }

      .cls-2 {
        fill: rgba(242, 242, 242, 0);
      }
    </style>
  </defs>
  <g id="Layer_1-2" data-name="Layer_1">
    <g id="Safari">
      <rect class="cls-2" width="137" height="137"/>
      <path class="cls-1" d="M67.28,136.93c36.81,0,67.28-31.08,67.28-68.47S104.02,0,67.21,0,0,31.01,0,68.47s30.54,68.47,67.28,68.47ZM67.28,125.52c-31.13,0-56-25.37-56-57.06S36.08,11.41,67.21,11.41s56.13,25.37,56.13,57.06-24.93,57.06-56.07,57.06Z"/>
      <path class="cls-1" d="M39.64,102.3l37.86-18.79c2.11-1.07,3.56-2.55,4.62-4.63l18.4-38.46c2.11-4.56-1.12-8.12-5.74-5.77l-37.73,18.73c-2.04.94-3.43,2.35-4.55,4.63l-18.53,38.53c-2.11,4.43,1.32,7.92,5.67,5.77ZM67.28,76.72c-4.49,0-8.05-3.69-8.05-8.19s3.56-8.26,8.05-8.26,8.11,3.69,8.11,8.26-3.63,8.19-8.11,8.19Z"/>
    </g>
  </g>
</svg>