<?xml version="1.0" encoding="UTF-8"?>
<svg id="Layer_2" xmlns="http://www.w3.org/2000/svg" viewBox="0 0 139.42 137">
  <defs>
    <style>
      .cls-1 {
        fill: rgba(242, 242, 242, .85);
      }

      .cls-2 {
        fill: rgba(242, 242, 242, 0);
      }
    </style>
  </defs>
  <g id="Layer_1-2" data-name="Layer_1">
    <g id="Settings">
      <rect class="cls-2" width="139.42" height="137"/>
      <path class="cls-1" d="M68.47,136.93c37.46,0,68.47-31.08,68.47-68.47S105.85,0,68.4,0,0,31.01,0,68.47s31.08,68.47,68.47,68.47ZM68.47,125.52c-31.68,0-56.99-25.37-56.99-57.06S36.72,11.41,68.4,11.41s57.12,25.37,57.12,57.06-25.37,57.06-57.06,57.06Z"/>
      <path class="cls-1" d="M68.4,106.12c.87,0,1.61-.13,2.48-.13l1.88,3.56c.6,1.21,1.81,1.88,3.22,1.68,1.28-.27,2.22-1.28,2.42-2.62l.6-4.09c1.54-.4,3.15-1.01,4.63-1.61l2.95,2.62c.94,1.01,2.21,1.14,3.62.47,1.07-.6,1.54-1.81,1.34-3.22l-.87-4.03c1.54-1.07,2.75-2.15,3.76-3.09l3.76,1.48c1.34.6,2.55.27,3.56-.87.87-1.01.94-2.42.2-3.49l-2.15-3.49c.94-1.41,1.75-2.82,2.42-4.3l4.1.27c1.34,0,2.55-.74,2.95-2.01.47-1.34,0-2.62-1.07-3.42l-3.15-2.48c.34-1.54.74-3.22.87-4.97l3.83-1.14c1.41-.47,2.15-1.54,2.15-2.89s-.81-2.42-2.15-2.89l-3.83-1.21c-.13-1.68-.54-3.29-.87-4.83l3.15-2.55c1.14-.87,1.54-2.15,1.07-3.36-.4-1.34-1.68-2.08-3.02-2.01l-4.03.2c-.8-1.61-1.61-3.09-2.42-4.3l2.15-3.49c.74-1.07.6-2.48-.27-3.49-.94-1.01-2.15-1.41-3.42-.87l-3.83,1.48c-1.07-1.07-2.35-2.08-3.76-3.09l.87-3.96c.2-1.48-.27-2.68-1.34-3.29-1.28-.67-2.68-.54-3.62.47l-2.95,2.55c-1.48-.6-3.02-1.14-4.63-1.54l-.6-4.09c-.2-1.34-1.14-2.35-2.42-2.55-1.34-.2-2.62.47-3.22,1.54l-1.88,3.69c-.87-.07-1.54-.13-2.48-.13-.81,0-1.68.07-2.42.13l-2.01-3.69c-.54-1.21-1.81-1.75-3.15-1.54-1.28.2-2.22,1.21-2.48,2.55l-.47,4.03c-1.68.47-3.15,1.07-4.7,1.61l-2.95-2.48c-.94-1.01-2.35-1.21-3.56-.54-1.07.6-1.68,1.81-1.48,3.29l.87,3.96c-1.34,1.01-2.68,2.01-3.76,3.09l-3.76-1.48c-1.28-.54-2.55-.13-3.42.87-.87.94-1.07,2.35-.34,3.42l2.22,3.56c-.94,1.41-1.75,2.89-2.42,4.3l-4.03-.2c-1.34-.07-2.55.67-2.95,2.01-.54,1.21-.13,2.42.94,3.36l3.22,2.55c-.47,1.75-.67,3.29-.87,4.83l-3.83,1.21c-1.34.47-2.15,1.54-2.15,2.89s.81,2.42,2.15,2.89l3.83,1.21c.2,1.48.4,3.15.87,4.9l-3.22,2.48c-1.07.81-1.48,2.15-1.01,3.42.47,1.28,1.61,2.01,2.95,2.01l4.09-.27c.67,1.48,1.48,2.82,2.35,4.3l-2.15,3.49c-.74,1.14-.54,2.55.27,3.49.94,1.14,2.28,1.48,3.56.87l3.69-1.48c1.01.94,2.28,2.01,3.76,3.09l-.87,3.96c-.2,1.41.34,2.68,1.48,3.29,1.21.67,2.62.54,3.56-.47l2.95-2.62c1.54.6,3.09,1.21,4.7,1.68l.47,3.96c.27,1.41,1.21,2.42,2.55,2.68,1.34.2,2.55-.47,3.09-1.68l2.01-3.56c.74,0,1.61.13,2.42.13ZM68.4,98.67c-16.78,0-29.94-13.36-29.94-30.27s13.16-30.34,29.94-30.34,29.94,13.36,29.94,30.34-13.16,30.27-29.94,30.27ZM68.27,79.27c4.63,0,8.32-2.75,10.27-7.58h25.04v-6.65h-25.04c-1.95-4.7-5.64-7.32-10.27-7.32-.54,0-1.21,0-2.15.2l-12.62-21.48-5.84,3.29,12.75,21.75c-1.88,2.15-2.82,4.43-2.82,7.05,0,2.42.94,4.77,2.82,6.85l-13.22,21.48,5.84,3.56,13.09-21.41c.94.27,1.68.27,2.15.27ZM64.57,68.47c0-2.01,1.75-3.69,3.76-3.69,2.22,0,3.96,1.61,3.96,3.69s-1.75,3.76-3.96,3.76c-2.01,0-3.76-1.75-3.76-3.76Z"/>
    </g>
  </g>
</svg>