<?xml version="1.0" encoding="UTF-8"?>
<svg id="Layer_2" xmlns="http://www.w3.org/2000/svg" viewBox="0 0 115.42 131.9">
  <defs>
    <style>
      .cls-1 {
        stroke: #000;
        stroke-miterlimit: 10;
      }
    </style>
  </defs>
  <g id="Layer_1-2" data-name="Layer_1">
    <g id="Shortcuts">
      <path class="cls-1" d="M57.71.5c-5.4,0-10.81,1.74-15.29,5.22L5.19,34.55c-6.07,4.7-6.28,14.01-.42,18.97h0l13.74,11.61-13.34,10.33c-6.07,4.7-6.27,14.01-.41,18.97l36.83,31.11c9.27,7.82,22.95,7.82,32.22,0l36.82-31.11c5.86-4.95,5.66-14.27-.41-18.97l-13.34-10.32,13.75-11.62c5.86-4.95,5.66-14.27-.41-18.97L73,5.71h0c-4.49-3.47-9.89-5.21-15.29-5.21ZM57.71,8.67c3.63,0,7.27,1.17,10.28,3.51l37.23,28.84c2.14,1.66,2.2,4.51.14,6.25l-15.09,12.74-17.27-13.38c-4.49-3.48-9.89-5.22-15.29-5.22s-10.8,1.74-15.28,5.21l-.02-.02-10.67,8.26,6.42,5.44,9.28-7.2-.02-.02c6.03-4.67,14.53-4.67,20.56,0h0l15.9,12.31-15.35,12.97c-6.24,5.27-15.42,5.27-21.66,0L10.05,47.27c-2.07-1.75-2-4.59.14-6.25L47.42,12.18s0,0,0,0c3.02-2.34,6.64-3.51,10.28-3.51ZM24.92,70.52l16.68,14.1c9.27,7.82,22.95,7.82,32.22,0l16.68-14.09,14.72,11.39c2.14,1.66,2.21,4.51.14,6.25l-36.83,31.11c-6.24,5.27-15.42,5.27-21.66,0l-36.82-31.11c-2.06-1.75-2-4.59.14-6.25l14.73-11.4Z"/>
    </g>
  </g>
</svg>