<?xml version="1.0" encoding="UTF-8"?>
<svg id="Layer_2" xmlns="http://www.w3.org/2000/svg" viewBox="0 0 137 127.95">
  <g id="Layer_1-2" data-name="Layer_1">
    <g id="Wealthfront">
      <path d="M137,127.32v-.4c-.1-.17-.29-.38-.6-.65-29.92-24.39-26.16-75.4-17.66-122.76.34-1.91.57-3.18-.95-3.36-9.67-1.13-41.87,4.12-51.11,6.64-2.4.66-2.62,1.35-2.66,2.87-2.53,94.79,55.76,114.64,71.6,117.72.36.07,1.15.16,1.39-.08h0Z"/>
      <path d="M52.84,36.29c-11.87,2.31-22.85,6.82-32.35,10.87-.84.24-2.17,1.66-1.82,3.43,3.75,19.15,22.03,73.15,91.93,77.35,1.61.07,3.23-.22,1.96-1.01-9.43-7.24-42.95-14.69-56.65-87.92-.14-.75-.12-3.6-3.06-2.72h0Z"/>
      <path d="M19.31,81.24c-4.16,2.51-14.9,9.55-18.75,13.18-.76.72-.62,1.23-.28,2.45,3.11,11.34,21.46,31.21,67.04,29.67,2.15-.07,2.16-.73,1.04-1.56-.73-.54-15.14-5.16-28.31-17.28-6.59-6.06-13.29-15.27-17.79-24.02-1.12-2.39-1.68-3.19-2.94-2.43h0Z"/>
    </g>
  </g>
</svg>