<?xml version="1.0" encoding="UTF-8"?>
<svg id="Layer_2" xmlns="http://www.w3.org/2000/svg" viewBox="0 0 137 55.21">
  <g id="Layer_1-2" data-name="Layer_1">
    <path id="Wells_Fargo" d="M86.98,0h-24.4v6.23h3.93c2.91,0,3.64,1.25,3.64,2.45-.11,1-.35,1.98-.73,2.91l-10.48,29.88-9-30.66c-.33-.95-.57-1.92-.73-2.91,0-.99.73-1.72,2.44-1.72h4.37V.06h-24.63v6.17h1.81c2.21-.36,4.33,1.03,4.89,3.2l1.45,3.9-9.99,28.74-10.36-30.81c-.43-.92-.67-1.9-.73-2.91.12-1.24,1.21-2.15,2.45-2.07h3.56V.06H0v6.17h1.16c2.91,0,4.16.73,4.89,2.91l15.49,45.57h11.65l9.99-28.28,8.74,28.27h11.44l15.05-43.44c.79-3.25,3.87-5.41,7.19-5.04h5.01c2.45,0,3.9,1.19,3.9,3.17v35.23c.13,2.04-1.41,3.8-3.45,3.93,0,0-.01,0-.02,0-.24.03-.49.03-.73,0h-5.01v6.64h30.28v-6.11h-4.16c-3.93,0-5.39-1.19-5.39-4.19v-15.38h3.46c5.1,0,7.28,2.21,7.28,8.04v1.72h5.82V14.19h-5.82v1.25c0,4.37-1.45,8.27-6.64,8.27h-3.81V6.24h10.71c12.2,0,13.25,6.09,14.12,12.67h5.82V0h-50.02Z"/>
  </g>
</svg>